<svg width="19" height="18" viewBox="0 0 19 18" fill="none" xmlns="http://www.w3.org/2000/svg">
<g clip-path="url(#clip0_10_1362)">
<g clip-path="url(#clip1_10_1362)">
<path d="M6.96002 10.875C7.4573 10.875 7.93421 10.6775 8.28585 10.3258C8.63748 9.97419 8.83502 9.49728 8.83502 9C8.83502 7.965 8.46002 7.5 8.08502 6.75C7.28102 5.14275 7.91702 3.7095 9.58502 2.25C9.96002 4.125 11.085 5.925 12.585 7.125C14.085 8.325 14.835 9.75 14.835 11.25C14.835 11.9394 14.6992 12.6221 14.4354 13.2591C14.1715 13.896 13.7848 14.4748 13.2973 14.9623C12.8098 15.4498 12.231 15.8365 11.5941 16.1004C10.9571 16.3642 10.2745 16.5 9.58502 16.5C8.89558 16.5 8.21289 16.3642 7.57593 16.1004C6.93897 15.8365 6.36022 15.4498 5.87271 14.9623C5.3852 14.4748 4.99849 13.896 4.73465 13.2591C4.47082 12.6221 4.33502 11.9394 4.33502 11.25C4.33502 10.3853 4.65977 9.5295 5.08502 9C5.08502 9.49728 5.28256 9.97419 5.63419 10.3258C5.98583 10.6775 6.46274 10.875 6.96002 10.875Z" stroke="#71717A" stroke-linecap="round" stroke-linejoin="round"/>
</g>
</g>
<defs>
<clipPath id="clip0_10_1362">
<rect width="18" height="18" fill="white" transform="translate(0.585022)"/>
</clipPath>
<clipPath id="clip1_10_1362">
<rect width="18" height="18" fill="white" transform="translate(0.585022)"/>
</clipPath>
</defs>
</svg>
