<svg width="19" height="18" viewBox="0 0 19 18" fill="none" xmlns="http://www.w3.org/2000/svg">
<g clip-path="url(#clip0_10_1310)">
<g clip-path="url(#clip1_10_1310)">
<path d="M11.46 1.5H5.08502C4.6872 1.5 4.30566 1.65804 4.02436 1.93934C3.74306 2.22064 3.58502 2.60218 3.58502 3V15C3.58502 15.3978 3.74306 15.7794 4.02436 16.0607C4.30566 16.342 4.6872 16.5 5.08502 16.5H14.085C14.4828 16.5 14.8644 16.342 15.1457 16.0607C15.427 15.7794 15.585 15.3978 15.585 15V5.625L11.46 1.5Z" stroke="#71717A" stroke-width="1.5" stroke-linecap="round" stroke-linejoin="round"/>
<path d="M11.085 1.5V6H15.585" stroke="#71717A" stroke-width="1.5" stroke-linecap="round" stroke-linejoin="round"/>
<path d="M12.585 9.75H6.58502" stroke="#71717A" stroke-width="1.5" stroke-linecap="round" stroke-linejoin="round"/>
<path d="M12.585 12.75H6.58502" stroke="#71717A" stroke-width="1.5" stroke-linecap="round" stroke-linejoin="round"/>
<path d="M8.08502 6.75H6.58502" stroke="#71717A" stroke-width="1.5" stroke-linecap="round" stroke-linejoin="round"/>
</g>
</g>
<defs>
<clipPath id="clip0_10_1310">
<rect width="18" height="18" fill="white" transform="translate(0.585022)"/>
</clipPath>
<clipPath id="clip1_10_1310">
<rect width="18" height="18" fill="white" transform="translate(0.585022)"/>
</clipPath>
</defs>
</svg>
