<svg width="19" height="18" viewBox="0 0 19 18" fill="none" xmlns="http://www.w3.org/2000/svg">
<g clip-path="url(#clip0_10_1295)">
<g clip-path="url(#clip1_10_1295)">
<g clip-path="url(#clip2_10_1295)">
<mask id="mask0_10_1295" style="mask-type:luminance" maskUnits="userSpaceOnUse" x="0" y="0" width="19" height="18">
<path d="M18.585 0H0.585022V18H18.585V0Z" fill="white"/>
</mask>
<g mask="url(#mask0_10_1295)">
<path d="M9.58502 16.5C13.7271 16.5 17.085 13.1421 17.085 9C17.085 4.85786 13.7271 1.5 9.58502 1.5C5.44288 1.5 2.08502 4.85786 2.08502 9C2.08502 13.1421 5.44288 16.5 9.58502 16.5Z" stroke="#71717A" stroke-width="1.5" stroke-linecap="round" stroke-linejoin="round"/>
<path d="M9.58502 11.25C10.8276 11.25 11.835 10.2426 11.835 9C11.835 7.75736 10.8276 6.75 9.58502 6.75C8.34238 6.75 7.33502 7.75736 7.33502 9C7.33502 10.2426 8.34238 11.25 9.58502 11.25Z" stroke="#71717A" stroke-width="1.5" stroke-linecap="round" stroke-linejoin="round"/>
</g>
</g>
</g>
</g>
<defs>
<clipPath id="clip0_10_1295">
<rect width="18" height="18" fill="white" transform="translate(0.585022)"/>
</clipPath>
<clipPath id="clip1_10_1295">
<rect width="18" height="18" fill="white" transform="translate(0.585022)"/>
</clipPath>
<clipPath id="clip2_10_1295">
<rect width="18" height="18" fill="white" transform="translate(0.585022)"/>
</clipPath>
</defs>
</svg>
