<svg width="19" height="18" viewBox="0 0 19 18" fill="none" xmlns="http://www.w3.org/2000/svg">
<g clip-path="url(#clip0_10_1330)">
<g clip-path="url(#clip1_10_1330)">
<path d="M2.83502 5.25V3.75C2.83502 3.35218 2.99306 2.97064 3.27436 2.68934C3.55566 2.40804 3.9372 2.25 4.33502 2.25H5.83502" stroke="#71717A" stroke-width="1.5" stroke-linecap="round" stroke-linejoin="round"/>
<path d="M13.335 2.25H14.835C15.2328 2.25 15.6144 2.40804 15.8957 2.68934C16.177 2.97064 16.335 3.35218 16.335 3.75V5.25" stroke="#71717A" stroke-width="1.5" stroke-linecap="round" stroke-linejoin="round"/>
<path d="M16.335 12.75V14.25C16.335 14.6478 16.177 15.0294 15.8957 15.3107C15.6144 15.592 15.2328 15.75 14.835 15.75H13.335" stroke="#71717A" stroke-width="1.5" stroke-linecap="round" stroke-linejoin="round"/>
<path d="M5.83502 15.75H4.33502C3.9372 15.75 3.55566 15.592 3.27436 15.3107C2.99306 15.0294 2.83502 14.6478 2.83502 14.25V12.75" stroke="#71717A" stroke-width="1.5" stroke-linecap="round" stroke-linejoin="round"/>
<path d="M5.83502 9H13.335" stroke="#71717A" stroke-width="2" stroke-linecap="round" stroke-linejoin="round"/>
</g>
</g>
<defs>
<clipPath id="clip0_10_1330">
<rect width="18" height="18" fill="white" transform="translate(0.585022)"/>
</clipPath>
<clipPath id="clip1_10_1330">
<rect width="18" height="18" fill="white" transform="translate(0.585022)"/>
</clipPath>
</defs>
</svg>
