<svg width="25" height="26" viewBox="0 0 25 26" fill="none" xmlns="http://www.w3.org/2000/svg">
<path d="M10.376 5.79785L3.73535 12.4385L3.19824 13L3.73535 13.5615L10.376 20.2021L11.499 19.0791L6.20117 13.7812H21.875V12.2188H6.20117L11.499 6.9209L10.376 5.79785Z" fill="#92929D"/>
<path d="M10.376 5.79785L3.73535 12.4385L3.19824 13L3.73535 13.5615L10.376 20.2021L11.499 19.0791L6.20117 13.7812H21.875V12.2188H6.20117L11.499 6.9209L10.376 5.79785Z" fill="black" fill-opacity="0.2"/>
<path d="M10.376 5.79785L3.73535 12.4385L3.19824 13L3.73535 13.5615L10.376 20.2021L11.499 19.0791L6.20117 13.7812H21.875V12.2188H6.20117L11.499 6.9209L10.376 5.79785Z" fill="black" fill-opacity="0.2"/>
</svg>
