<svg width="196" height="40" viewBox="0 0 196 40" fill="none" xmlns="http://www.w3.org/2000/svg">
<path d="M15.944 9.376C18.792 9.376 21.416 10.112 23.816 11.584C26.248 13.024 28.12 14.944 29.432 17.344H23.096C21.112 15.424 18.728 14.464 15.944 14.464C13.128 14.464 10.728 15.472 8.744 17.488C6.76 19.472 5.768 21.872 5.768 24.688C5.768 27.504 6.76 29.904 8.744 31.888C10.728 33.872 13.128 34.864 15.944 34.864C17.608 34.864 19.16 34.496 20.6 33.76C22.04 33.024 23.224 32.016 24.152 30.736H30.008C28.824 33.488 26.952 35.728 24.392 37.456C21.864 39.152 19.048 40 15.944 40C11.72 40 8.12 38.512 5.144 35.536C2.168 32.528 0.68 28.912 0.68 24.688C0.68 20.464 2.168 16.864 5.144 13.888C8.12 10.88 11.72 9.376 15.944 9.376ZM33.8803 13.888C36.8883 10.88 40.5043 9.376 44.7283 9.376C48.9523 9.376 52.5523 10.88 55.5283 13.888C58.5363 16.864 60.0403 20.464 60.0403 24.688C60.0403 25.488 59.9603 26.336 59.8003 27.232H34.8403C35.4163 29.472 36.6163 31.312 38.4403 32.752C40.2643 34.16 42.3602 34.864 44.7283 34.864C47.7043 34.864 50.1843 33.792 52.1683 31.648H58.3603C57.0803 34.176 55.2083 36.208 52.7443 37.744C50.3123 39.248 47.6403 40 44.7283 40C40.5043 40 36.8883 38.512 33.8803 35.536C30.9043 32.528 29.4162 28.912 29.4162 24.688C29.4162 20.464 30.9043 16.864 33.8803 13.888ZM34.8403 22.144H54.6163C54.0723 19.904 52.8723 18.064 51.0163 16.624C49.1923 15.184 47.0963 14.464 44.7283 14.464C42.3602 14.464 40.2483 15.184 38.3923 16.624C36.5683 18.064 35.3843 19.904 34.8403 22.144ZM61.6235 24.688C61.6235 20.464 63.1115 16.864 66.0875 13.888C69.0635 10.88 72.6635 9.376 76.8875 9.376V14.464C74.0715 14.464 71.6715 15.472 69.6875 17.488C67.7035 19.472 66.7115 21.872 66.7115 24.688V40H61.6235V24.688ZM78.3597 24.688V0.879997H83.4477V13.264C86.3917 10.672 89.7997 9.376 93.6717 9.376C97.8957 9.376 101.496 10.88 104.472 13.888C107.48 16.864 108.984 20.464 108.984 24.688C108.984 28.912 107.48 32.528 104.472 35.536C101.496 38.512 97.8957 40 93.6717 40C89.4477 40 85.8317 38.512 82.8237 35.536C79.8477 32.528 78.3597 28.912 78.3597 24.688ZM86.4237 31.936C88.4397 33.92 90.8557 34.912 93.6717 34.912C96.4877 34.912 98.8877 33.92 100.872 31.936C102.856 29.92 103.848 27.504 103.848 24.688C103.848 21.872 102.856 19.472 100.872 17.488C98.8877 15.504 96.4877 14.512 93.6717 14.512C90.8557 14.512 88.4397 15.504 86.4237 17.488C84.4397 19.472 83.4477 21.872 83.4477 24.688C83.4477 27.536 84.4397 29.952 86.4237 31.936ZM114.042 13.888C117.05 10.88 120.666 9.376 124.89 9.376C129.114 9.376 132.714 10.88 135.69 13.888C138.698 16.864 140.202 20.464 140.202 24.688C140.202 25.488 140.122 26.336 139.962 27.232H115.002C115.578 29.472 116.778 31.312 118.602 32.752C120.426 34.16 122.522 34.864 124.89 34.864C127.866 34.864 130.346 33.792 132.33 31.648H138.522C137.242 34.176 135.37 36.208 132.906 37.744C130.474 39.248 127.802 40 124.89 40C120.666 40 117.05 38.512 114.042 35.536C111.066 32.528 109.578 28.912 109.578 24.688C109.578 20.464 111.066 16.864 114.042 13.888ZM115.002 22.144H134.778C134.234 19.904 133.034 18.064 131.178 16.624C129.354 15.184 127.258 14.464 124.89 14.464C122.522 14.464 120.41 15.184 118.554 16.624C116.73 18.064 115.546 19.904 115.002 22.144ZM141.785 24.688C141.785 20.464 143.273 16.864 146.249 13.888C149.225 10.88 152.825 9.376 157.049 9.376V14.464C154.233 14.464 151.833 15.472 149.849 17.488C147.865 19.472 146.873 21.872 146.873 24.688V40H141.785V24.688Z" fill="#FFFDFF"/>
<path d="M186.848 24.688V40H181.76V36.064C178.88 38.688 175.472 40 171.536 40C167.312 40 163.696 38.512 160.688 35.536C157.712 32.528 156.224 28.912 156.224 24.688C156.224 20.464 157.712 16.864 160.688 13.888C163.696 10.88 167.312 9.376 171.536 9.376C175.76 9.376 179.36 10.88 182.336 13.888C185.344 16.864 186.848 20.464 186.848 24.688ZM171.536 14.464C168.72 14.464 166.32 15.472 164.336 17.488C162.352 19.472 161.36 21.872 161.36 24.688C161.36 27.504 162.352 29.904 164.336 31.888C166.32 33.872 168.72 34.864 171.536 34.864C174.352 34.864 176.752 33.872 178.736 31.888C180.752 29.904 181.76 27.504 181.76 24.688C181.76 21.84 180.768 19.424 178.784 17.44C176.8 15.456 174.384 14.464 171.536 14.464ZM189.932 9.376H195.02V40H189.932V9.376ZM190.652 1.648C191.164 1.136 191.772 0.879997 192.476 0.879997C193.18 0.879997 193.772 1.136 194.252 1.648C194.764 2.128 195.02 2.72 195.02 3.424C195.02 4.128 194.764 4.736 194.252 5.248C193.772 5.728 193.18 5.968 192.476 5.968C191.772 5.968 191.164 5.728 190.652 5.248C190.172 4.736 189.932 4.128 189.932 3.424C189.932 2.72 190.172 2.128 190.652 1.648Z" fill="#0062FF"/>
</svg>
