<svg width="36" height="36" viewBox="0 0 36 36" fill="none" xmlns="http://www.w3.org/2000/svg">
<rect opacity="0.25" width="36" height="36" rx="3" fill="#FC5A5A"/>
<path fill-rule="evenodd" clip-rule="evenodd" d="M17.9967 24C17.8109 24.0009 17.6249 23.9249 17.4913 23.772L12.8313 18.4386C12.589 18.1614 12.6174 17.7402 12.8947 17.498C13.1719 17.2557 13.5931 17.2841 13.8354 17.5614C15.0481 18.9493 17.3333 18.0916 17.3333 16.2485V12.6667C17.3333 12.2985 17.6318 12 18 12C18.3682 12 18.6667 12.2985 18.6667 12.6667V16.2447C18.6667 18.0878 20.9506 18.9468 22.1653 17.5606C22.4079 17.2837 22.8291 17.2559 23.106 17.4986C23.3829 17.7412 23.4107 18.1624 23.1681 18.4394L18.5517 23.7077C18.4318 23.8841 18.2294 24 18 24C17.9989 24 17.9978 24 17.9967 24Z" fill="#FC5A5A"/>
</svg>
