<svg width="25" height="24" viewBox="0 0 25 24" fill="none" xmlns="http://www.w3.org/2000/svg">
<path d="M9.99219 3.67969L9.40625 3.75C9.40625 3.75 6.77832 4.03711 4.85938 5.57812H4.83594L4.8125 5.60156C4.38184 5.99707 4.19434 6.4834 3.89844 7.19531C3.60254 7.90723 3.28613 8.81543 3.00781 9.82031C2.45117 11.833 2 14.2705 2 16.5V16.6875L2.09375 16.875C2.78809 18.0938 4.02148 18.8701 5.16406 19.4062C6.30664 19.9424 7.29395 20.2266 7.97656 20.25L8.42188 20.2734L8.65625 19.875L9.47656 18.4219C10.3467 18.6182 11.3486 18.75 12.5 18.75C13.6514 18.75 14.6533 18.6182 15.5234 18.4219L16.3438 19.875L16.5781 20.2734L17.0234 20.25C17.7061 20.2266 18.6934 19.9424 19.8359 19.4062C20.9785 18.8701 22.2119 18.0938 22.9062 16.875L23 16.6875V16.5C23 14.2705 22.5488 11.833 21.9922 9.82031C21.7139 8.81543 21.3975 7.90723 21.1016 7.19531C20.8057 6.4834 20.6182 5.99707 20.1875 5.60156L20.1641 5.57812H20.1406C18.2217 4.03711 15.5938 3.75 15.5938 3.75L15.0078 3.67969L14.7969 4.21875C14.7969 4.21875 14.5801 4.7666 14.4453 5.39062C13.5957 5.27637 12.9014 5.25 12.5 5.25C12.0986 5.25 11.4043 5.27637 10.5547 5.39062C10.4199 4.7666 10.2031 4.21875 10.2031 4.21875L9.99219 3.67969ZM8.96094 5.39062C8.99316 5.49609 9.02539 5.58691 9.05469 5.67188C8.08496 5.91211 7.05078 6.27832 6.10156 6.86719L6.89844 8.13281C8.84375 6.92578 11.6387 6.75 12.5 6.75C13.3613 6.75 16.1562 6.92578 18.1016 8.13281L18.8984 6.86719C17.9492 6.27832 16.915 5.91211 15.9453 5.67188C15.9746 5.58691 16.0068 5.49609 16.0391 5.39062C16.7393 5.53125 18.0752 5.85352 19.1797 6.72656C19.1738 6.72949 19.4609 7.16309 19.7188 7.78125C19.9824 8.41699 20.2754 9.26367 20.5391 10.2188C21.0459 12.0498 21.4443 14.2793 21.4766 16.2422C21.0049 16.9629 20.1289 17.6133 19.2031 18.0469C18.3945 18.4248 17.7559 18.5625 17.375 18.6328L17 18C17.2227 17.918 17.4424 17.8271 17.6328 17.7422C18.7871 17.2354 19.4141 16.6875 19.4141 16.6875L18.4297 15.5625C18.4297 15.5625 18.0078 15.9492 17.0234 16.3828C16.0391 16.8164 14.5361 17.25 12.5 17.25C10.4639 17.25 8.96094 16.8164 7.97656 16.3828C6.99219 15.9492 6.57031 15.5625 6.57031 15.5625L5.58594 16.6875C5.58594 16.6875 6.21289 17.2354 7.36719 17.7422C7.55762 17.8271 7.77734 17.918 8 18L7.625 18.6328C7.24414 18.5625 6.60547 18.4248 5.79688 18.0469C4.87109 17.6133 3.99512 16.9629 3.52344 16.2422C3.55566 14.2793 3.9541 12.0498 4.46094 10.2188C4.72461 9.26367 5.01758 8.41699 5.28125 7.78125C5.53906 7.16309 5.82617 6.72949 5.82031 6.72656C6.9248 5.85352 8.26074 5.53125 8.96094 5.39062ZM9.875 10.5C9.29492 10.5 8.78223 10.8311 8.46875 11.25C8.15527 11.6689 8 12.1846 8 12.75C8 13.3154 8.15527 13.8311 8.46875 14.25C8.78223 14.6689 9.29492 15 9.875 15C10.4551 15 10.9678 14.6689 11.2812 14.25C11.5947 13.8311 11.75 13.3154 11.75 12.75C11.75 12.1846 11.5947 11.6689 11.2812 11.25C10.9678 10.8311 10.4551 10.5 9.875 10.5ZM15.125 10.5C14.5449 10.5 14.0322 10.8311 13.7188 11.25C13.4053 11.6689 13.25 12.1846 13.25 12.75C13.25 13.3154 13.4053 13.8311 13.7188 14.25C14.0322 14.6689 14.5449 15 15.125 15C15.7051 15 16.2178 14.6689 16.5312 14.25C16.8447 13.8311 17 13.3154 17 12.75C17 12.1846 16.8447 11.6689 16.5312 11.25C16.2178 10.8311 15.7051 10.5 15.125 10.5ZM9.875 12C9.91602 12 9.96875 12.0146 10.0625 12.1406C10.1562 12.2666 10.25 12.4863 10.25 12.75C10.25 13.0137 10.1562 13.2334 10.0625 13.3594C9.96875 13.4854 9.91602 13.5 9.875 13.5C9.83398 13.5 9.78125 13.4854 9.6875 13.3594C9.59375 13.2334 9.5 13.0137 9.5 12.75C9.5 12.4863 9.59375 12.2666 9.6875 12.1406C9.78125 12.0146 9.83398 12 9.875 12ZM15.125 12C15.166 12 15.2188 12.0146 15.3125 12.1406C15.4062 12.2666 15.5 12.4863 15.5 12.75C15.5 13.0137 15.4062 13.2334 15.3125 13.3594C15.2188 13.4854 15.166 13.5 15.125 13.5C15.084 13.5 15.0312 13.4854 14.9375 13.3594C14.8438 13.2334 14.75 13.0137 14.75 12.75C14.75 12.4863 14.8438 12.2666 14.9375 12.1406C15.0312 12.0146 15.084 12 15.125 12Z" fill="#616E85"/>
</svg>
