<svg width="36" height="36" viewBox="0 0 36 36" fill="none" xmlns="http://www.w3.org/2000/svg">
<rect opacity="0.25" width="36" height="36" rx="3" fill="#979797"/>
<path d="M23.3333 16L12.6667 16C12.2985 16 12 16.2985 12 16.6667C12 17.0349 12.2985 17.3333 12.6667 17.3333L23.3333 17.3333C23.7015 17.3333 24 17.0349 24 16.6667C24 16.2985 23.7015 16 23.3333 16Z" fill="#797979"/>
<path d="M23.3333 19.667L12.6667 19.667C12.2985 19.667 12 19.9655 12 20.3337C12 20.7019 12.2985 21.0003 12.6667 21.0003L23.3333 21.0003C23.7015 21.0003 24 20.7019 24 20.3337C24 19.9655 23.7015 19.667 23.3333 19.667Z" fill="#797979"/>
</svg>
