<svg width="70" height="70" viewBox="0 0 70 70" fill="none" xmlns="http://www.w3.org/2000/svg">
<rect width="70" height="70" rx="35" fill="#0062FF"/>
<path d="M33.3643 14.6875L20.8276 34.3011L35.0061 41.2714L48.9587 34.295L36.6449 14.6875H35.7812H33.3643ZM33.4375 20.3699V27.1692L27.3218 29.9432L33.4375 20.3699ZM36.5625 20.434L42.5287 29.9341L36.5625 27.1936V20.434ZM33.4375 30.5994V37.0172L26.6504 33.6786L33.4375 30.5994ZM36.5625 30.636L43.197 33.6816L36.5625 36.9989V30.636ZM20.9375 37.3621V41.2988L33.3246 55.1172H35H36.6754L49.0625 41.2988V37.3621L35 44.5703L20.9375 37.3621ZM28.0023 44.4971L33.4375 47.2833V50.5579L28.0023 44.4971ZM41.9977 44.4971L36.5625 50.5579V47.2833L41.9977 44.4971Z" fill="#FAFAFB"/>
</svg>
