<svg width="40" height="41" viewBox="0 0 40 41" fill="none" xmlns="http://www.w3.org/2000/svg">
<rect y="0.5" width="40" height="40" rx="20" fill="#0062FF"/>
<path d="M19.2148 10.75L13.1973 20.1646L20.0029 23.5103L26.7002 20.1616L20.7896 10.75H20.375H19.2148ZM19.25 13.4775V16.7412L16.3145 18.0728L19.25 13.4775ZM20.75 13.5083L23.6138 18.0684L20.75 16.7529V13.5083ZM19.25 18.3877V21.4683L15.9922 19.8657L19.25 18.3877ZM20.75 18.4053L23.9346 19.8672L20.75 21.4595V18.4053ZM13.25 21.6338V23.5234L19.1958 30.1562H20H20.8042L26.75 23.5234V21.6338L20 25.0938L13.25 21.6338ZM16.6411 25.0586L19.25 26.396V27.9678L16.6411 25.0586ZM23.3589 25.0586L20.75 27.9678V26.396L23.3589 25.0586Z" fill="#FAFAFB"/>
</svg>
