<svg width="25" height="24" viewBox="0 0 25 24" fill="none" xmlns="http://www.w3.org/2000/svg">
<path fill-rule="evenodd" clip-rule="evenodd" d="M12.5 3C7.52832 3 3.5 7.02832 3.5 12C3.5 15.9756 6.07813 19.3506 9.65527 20.54C10.1064 20.6221 10.2705 20.3467 10.2705 20.1064C10.2705 19.8926 10.2617 19.3271 10.2588 18.5771C7.75391 19.1191 7.22656 17.3701 7.22656 17.3701C6.81641 16.3301 6.22754 16.0518 6.22754 16.0518C5.41016 15.4951 6.28906 15.5068 6.28906 15.5068C7.19141 15.5713 7.66602 16.4326 7.66602 16.4326C8.46875 17.8096 9.77246 17.4111 10.2852 17.1826C10.3672 16.5996 10.6016 16.2041 10.8564 15.9785C8.8584 15.7529 6.75781 14.9795 6.75781 11.5312C6.75781 10.5469 7.10938 9.74414 7.68359 9.11426C7.59277 8.88867 7.28223 7.97168 7.77149 6.73242C7.77149 6.73242 8.52734 6.49219 10.2471 7.65527C10.9648 7.45605 11.7354 7.35645 12.5 7.35352C13.2646 7.35645 14.0352 7.45605 14.7529 7.65527C16.4727 6.49219 17.2256 6.73242 17.2256 6.73242C17.7178 7.97168 17.4102 8.88867 17.3164 9.11426C17.8936 9.74414 18.2393 10.5469 18.2393 11.5312C18.2393 14.9883 16.1357 15.7471 14.1318 15.9727C14.4541 16.248 14.7412 16.7988 14.7412 17.6367C14.7412 18.8408 14.7324 19.8105 14.7324 20.1064C14.7324 20.3467 14.8936 20.6279 15.3506 20.54C18.9248 19.3477 21.5 15.9756 21.5 12C21.5 7.02832 17.4717 3 12.5 3Z" fill="#616E85"/>
</svg>
