<svg width="25" height="24" viewBox="0 0 25 24" fill="none" xmlns="http://www.w3.org/2000/svg">
<path d="M12.5 2.25C7.124 2.25 2.75 6.624 2.75 12C2.75 17.376 7.124 21.75 12.5 21.75C17.876 21.75 22.25 17.376 22.25 12C22.25 6.624 17.876 2.25 12.5 2.25ZM12.5 3.75C12.7535 3.75 13.0025 3.76559 13.25 3.78809V5.25H11.75L11 7.5H10.25V8.25H14L14.75 9H15.5V9.75L14.75 10.5L11.75 9.75L8.75 12V14.25L10.25 15.75H12.5V17.625L13.25 19.5H14L16.25 16.5V15.75L17 14.25V13.5H16.25L15.5 12L16.25 11.25L17.375 12L19.25 11.25V10.5H20.6064C20.6964 10.9875 20.75 11.487 20.75 12C20.75 16.5487 17.0487 20.25 12.5 20.25C7.95125 20.25 4.25 16.5487 4.25 12C4.25 7.45125 7.95125 3.75 12.5 3.75Z" fill="#616E85"/>
</svg>
