<svg width="12" height="12" viewBox="0 0 12 12" fill="none" xmlns="http://www.w3.org/2000/svg">
<path fill-rule="evenodd" clip-rule="evenodd" d="M5.99666 8.58307e-06C5.81094 -0.00090313 5.62493 0.0751123 5.49132 0.228018L0.831305 5.56135C0.589046 5.83861 0.617422 6.25977 0.894684 6.50203C1.17195 6.74429 1.5931 6.71591 1.83536 6.43865C3.0481 5.05068 5.33333 5.9084 5.33333 7.75155V11.3333C5.33333 11.7015 5.63181 12 6 12C6.36819 12 6.66667 11.7015 6.66667 11.3333V7.75531C6.66667 5.91224 8.95061 5.05316 10.1653 6.43936C10.4079 6.71628 10.8291 6.74406 11.106 6.50141C11.3829 6.25876 11.4107 5.83756 11.1681 5.56064L6.55171 0.292299C6.43176 0.11588 6.22941 0 6 0C5.99889 0 5.99777 2.86102e-06 5.99666 8.58307e-06Z" fill="#16C784"/>
</svg>
