<svg width="12" height="5" viewBox="0 0 12 5" fill="none" xmlns="http://www.w3.org/2000/svg">
<path d="M11.3333 1.01248e-05L0.666667 9.99764e-06C0.298477 9.99325e-06 1.23405e-08 0.298487 7.94992e-09 0.666677C3.5593e-09 1.03487 0.298477 1.33334 0.666667 1.33334L11.3333 1.33334C11.7015 1.33334 12 1.03487 12 0.666677C12 0.298487 11.7015 1.01292e-05 11.3333 1.01248e-05Z" fill="#797979"/>
<path d="M11.3333 3.667L0.666667 3.667C0.298477 3.667 1.23405e-08 3.96548 7.94986e-09 4.33367C3.55924e-09 4.70186 0.298477 5.00034 0.666667 5.00034L11.3333 5.00034C11.7015 5.00034 12 4.70186 12 4.33367C12 3.96548 11.7015 3.667 11.3333 3.667Z" fill="#797979"/>
</svg>
