<svg width="20" height="20" viewBox="0 0 20 20" fill="none" xmlns="http://www.w3.org/2000/svg">
<path fill-rule="evenodd" clip-rule="evenodd" d="M8 0H12C13.1046 0 14 0.89543 14 2V6C14 7.65685 15.3431 9 17 9H18C19.1046 9 20 9.89543 20 11V19C20 19.5523 19.5523 20 19 20H13H7H1C0.447715 20 0 19.5523 0 19V6.5C0 5.39543 0.89543 4.5 2 4.5H3.5C4.88071 4.5 6 3.38071 6 2C6 0.89543 6.89543 0 8 0ZM8 6.5V16C8 17.1046 8.89543 18 10 18C11.1046 18 12 17.1046 12 16V11V4C12 2.89543 11.1046 2 10 2C8.89543 2 8 2.89543 8 4V6.5ZM6 8.5C6 7.39543 5.10457 6.5 4 6.5C2.89543 6.5 2 7.39543 2 8.5V16C2 17.1046 2.89543 18 4 18C5.10457 18 6 17.1046 6 16V8.5ZM14 16C14 17.1046 14.8954 18 16 18C17.1046 18 18 17.1046 18 16V13C18 11.8954 17.1046 11 16 11C14.8954 11 14 11.8954 14 13V16Z" fill="#50B5FF"/>
</svg>
