<svg width="40" height="40" viewBox="0 0 40 40" fill="none" xmlns="http://www.w3.org/2000/svg">
<rect width="40" height="40" rx="20" fill="#16C784"/>
<path d="M20 7.8125C13.2507 7.8125 7.8125 13.2507 7.8125 20C7.8125 26.7493 13.2507 32.1875 20 32.1875C26.7493 32.1875 32.1875 26.7493 32.1875 20C32.1875 18.689 32.0117 17.3816 31.543 16.1621L30.0195 17.6562C30.2063 18.407 30.3125 19.1577 30.3125 20C30.3125 25.7202 25.7202 30.3125 20 30.3125C14.2798 30.3125 9.6875 25.7202 9.6875 20C9.6875 14.2798 14.2798 9.6875 20 9.6875C22.8125 9.6875 25.3394 10.8081 27.1191 12.5879L28.4375 11.2695C26.2805 9.11255 23.2812 7.8125 20 7.8125ZM30.5762 11.8262L20 22.4023L15.9863 18.3887L14.6387 19.7363L19.3262 24.4238L20 25.0684L20.6738 24.4238L31.9238 13.1738L30.5762 11.8262Z" fill="#13131A"/>
</svg>
