<svg width="36" height="36" viewBox="0 0 36 36" fill="none" xmlns="http://www.w3.org/2000/svg">
<rect opacity="0.25" width="36" height="36" rx="3" fill="#3DD598"/>
<path fill-rule="evenodd" clip-rule="evenodd" d="M17.9967 12C17.8109 11.9991 17.6249 12.0751 17.4913 12.228L12.8313 17.5614C12.589 17.8386 12.6174 18.2598 12.8947 18.502C13.1719 18.7443 13.5931 18.7159 13.8354 18.4386C15.0481 17.0507 17.3333 17.9084 17.3333 19.7515V23.3333C17.3333 23.7015 17.6318 24 18 24C18.3682 24 18.6667 23.7015 18.6667 23.3333V19.7553C18.6667 17.9122 20.9506 17.0532 22.1653 18.4394C22.4079 18.7163 22.8291 18.7441 23.106 18.5014C23.3829 18.2588 23.4107 17.8376 23.1681 17.5606L18.5517 12.2923C18.4318 12.1159 18.2294 12 18 12C17.9989 12 17.9978 12 17.9967 12Z" fill="#16C784"/>
</svg>
