<svg width="16" height="17" viewBox="0 0 16 17" fill="none" xmlns="http://www.w3.org/2000/svg">
<g clip-path="url(#clip0_2_1160)">
<path d="M8 15.4067C4.32667 15.4067 1.33334 12.4134 1.33334 8.74003C1.33334 5.0667 4.32667 2.07336 8 2.07336C11.6733 2.07336 14.6667 5.0667 14.6667 8.74003C14.6667 12.4134 11.6733 15.4067 8 15.4067ZM8 3.4067C5.06 3.4067 2.66667 5.80003 2.66667 8.74003C2.66667 11.68 5.06 14.0734 8 14.0734C10.94 14.0734 13.3333 11.68 13.3333 8.74003C13.3333 5.80003 10.94 3.4067 8 3.4067Z" fill="#A6B0C3"/>
<path d="M7.99993 6.31998C8.50807 6.31998 8.91993 5.90808 8.91993 5.39998C8.91993 4.89188 8.50807 4.47998 7.99993 4.47998C7.49187 4.47998 7.07993 4.89188 7.07993 5.39998C7.07993 5.90808 7.49187 6.31998 7.99993 6.31998Z" fill="#A6B0C3"/>
<path d="M8 12.74C7.63334 12.74 7.33334 12.44 7.33334 12.0733V8.0733C7.33334 7.70663 7.63334 7.40662 8 7.40662C8.36667 7.40662 8.66667 7.70663 8.66667 8.0733V12.0733C8.66667 12.44 8.36667 12.74 8 12.74Z" fill="#A6B0C3"/>
</g>
<defs>
<clipPath id="clip0_2_1160">
<rect width="16" height="16" fill="white" transform="translate(0 0.73999)"/>
</clipPath>
</defs>
</svg>
