<svg width="25" height="24" viewBox="0 0 25 24" fill="none" xmlns="http://www.w3.org/2000/svg">
<path d="M20.0527 2.99711C19.8008 3.00883 19.5635 3.08208 19.3526 3.16411H19.3496C19.1358 3.24907 18.1192 3.6768 16.5752 4.32426C15.0313 4.97465 13.0274 5.8184 11.0381 6.65629C7.06544 8.32915 3.16017 9.97563 3.16017 9.97563L3.20704 9.95805C3.20704 9.95805 2.93751 10.0459 2.65626 10.2393C2.51271 10.3331 2.3545 10.462 2.21681 10.6641C2.07911 10.8663 1.96779 11.1768 2.0088 11.4961C2.07618 12.0381 2.42775 12.3633 2.6797 12.542C2.93458 12.7237 3.17775 12.8086 3.17775 12.8086H3.18361L6.84572 14.042C7.00978 14.5694 7.96193 17.6983 8.19044 18.419C8.32521 18.8497 8.45704 19.1192 8.62111 19.3243C8.70021 19.4297 8.79396 19.5176 8.90528 19.5879C8.94923 19.6143 8.99611 19.6348 9.04298 19.6524C9.05763 19.6612 9.07228 19.6641 9.08986 19.667L9.05177 19.6582C9.06349 19.6612 9.07228 19.67 9.08107 19.6729C9.11036 19.6817 9.13087 19.6846 9.16896 19.6905C9.74903 19.8663 10.2149 19.5059 10.2149 19.5059L10.2412 19.4854L12.4033 17.5166L16.0274 20.2969L16.1094 20.3321C16.8652 20.6631 17.6299 20.4786 18.0342 20.1534C18.4414 19.8252 18.5996 19.4063 18.5996 19.4063L18.626 19.3389L21.4268 4.99223C21.5059 4.63774 21.5264 4.30669 21.4385 3.98442C21.3506 3.66215 21.125 3.3604 20.8526 3.19926C20.5772 3.0352 20.3047 2.9854 20.0527 2.99711ZM19.9766 4.5352C19.9736 4.58208 19.9824 4.57622 19.9619 4.66704V4.67583L17.1875 18.8731C17.1758 18.8936 17.1553 18.9375 17.0996 18.9815C17.041 19.0284 16.9942 19.0577 16.751 18.961L12.3184 15.5625L9.64064 18.003L10.2031 14.4112C10.2031 14.4112 17.1465 7.9395 17.4453 7.66118C17.7442 7.38286 17.6445 7.32426 17.6445 7.32426C17.6651 6.98442 17.1934 7.22465 17.1934 7.22465L8.06153 12.8819L8.05861 12.8672L3.68165 11.3936V11.3907C3.67872 11.3907 3.67286 11.3877 3.66993 11.3877C3.67286 11.3877 3.69337 11.379 3.69337 11.379L3.71681 11.3672L3.74025 11.3584C3.74025 11.3584 7.64845 9.71196 11.6211 8.03911C13.6104 7.20122 15.6143 6.35747 17.1553 5.70708C18.6963 5.05961 19.8359 4.585 19.9004 4.55864C19.9619 4.5352 19.9326 4.5352 19.9766 4.5352Z" fill="#616E85"/>
</svg>
