<svg width="14" height="14" viewBox="0 0 14 14" fill="none" xmlns="http://www.w3.org/2000/svg">
<path d="M10.8815 11.4872L14 14V0.717949C14 0.527537 13.9263 0.344924 13.795 0.210282C13.6637 0.0756408 13.4857 0 13.3 0H0.7C0.514349 0 0.336301 0.0756408 0.205025 0.210282C0.0737495 0.344924 0 0.527537 0 0.717949V10.7692C0 10.9596 0.0737495 11.1423 0.205025 11.2769C0.336301 11.4115 0.514349 11.4872 0.7 11.4872H10.8815ZM10.5 5.02564V6.46154H9.1V5.02564H10.5ZM7.7 5.02564V6.46154H6.3V5.02564H7.7ZM4.9 5.02564V6.46154H3.5V5.02564H4.9Z" fill="#7A99C8"/>
</svg>
