<svg width="15" height="18" viewBox="0 0 15 18" fill="none" xmlns="http://www.w3.org/2000/svg">
<path fill-rule="evenodd" clip-rule="evenodd" d="M2.76923 4.82353C2.76923 2.15957 4.88727 0 7.5 0C10.1127 0 12.2308 2.15957 12.2308 4.82353C12.2308 6.81276 12.6427 10.0864 13.7352 11.7488C14.534 12.9645 15 14.4268 15 16C15 17.1046 14.1046 18 13 18H2C0.89543 18 0 17.1046 0 16C0 14.4268 0.465954 12.9645 1.26483 11.7488C2.35727 10.0864 2.76923 6.81276 2.76923 4.82353ZM7.5 7.52941C8.96568 7.52941 10.1538 6.31795 10.1538 4.82353C10.1538 3.32911 8.96568 2.11765 7.5 2.11765C6.03432 2.11765 4.84615 3.32911 4.84615 4.82353C4.84615 6.31795 6.03432 7.52941 7.5 7.52941ZM7.5 10.4706C5.59487 10.4706 3.91919 11.4722 2.95188 12.9872C2.0473 14.4039 3.45928 15.8824 5.14017 15.8824H9.85983C11.5407 15.8824 12.9527 14.4039 12.0481 12.9872C11.0808 11.4722 9.40513 10.4706 7.5 10.4706Z" fill="#1E75FF"/>
</svg>
