<svg width="25" height="23" viewBox="0 0 25 23" fill="none" xmlns="http://www.w3.org/2000/svg">
<path d="M18.5127 6.75625C18.5127 6.50208 18.4043 6.25833 18.2114 6.07861C18.0185 5.89888 17.7569 5.79792 17.4842 5.79792L9.25632 5.75C8.98355 5.75 8.72196 5.85097 8.52908 6.03069C8.3362 6.21041 8.22784 6.45417 8.22784 6.70833C8.22784 6.9625 8.3362 7.20625 8.52908 7.38598C8.72196 7.5657 8.98355 7.66667 9.25632 7.66667H14.9747L6.46914 15.6113C6.37274 15.7003 6.29623 15.8063 6.24401 15.9231C6.1918 16.0399 6.16492 16.1652 6.16492 16.2917C6.16492 16.4182 6.1918 16.5434 6.24401 16.6602C6.29623 16.777 6.37274 16.883 6.46914 16.9721C6.56475 17.0619 6.6785 17.1332 6.80383 17.1819C6.92916 17.2305 7.06359 17.2556 7.19936 17.2556C7.33513 17.2556 7.46956 17.2305 7.59489 17.1819C7.72022 17.1332 7.83397 17.0619 7.92958 16.9721L16.4557 9.0275V14.375C16.4557 14.6292 16.564 14.8729 16.7569 15.0526C16.9498 15.2324 17.2114 15.3333 17.4842 15.3333C17.7569 15.3333 18.0185 15.2324 18.2114 15.0526C18.4043 14.8729 18.5127 14.6292 18.5127 14.375V6.75625Z" fill="#2FA15D"/>
</svg>
